<svg xmlns="http://www.w3.org/2000/svg" width="50" height="50" viewBox="0 0 50 50">
  <g fill="none">
    <circle cx="25" cy="25" r="25" fill="#FFF" opacity=".2"/>
    <circle cx="25" cy="25" r="22" fill="#01335A"/>
    <g fill="#FFF" transform="translate(12 13)">
      <rect width="26.457" height="2.649" y="12.113"/>
      <polygon points="1.622 23.605 2.926 18.255 5.394 19.95"/>
      <path d="M9.956046,5.59534521 L11.756046,5.64799421 C12.0592485,5.66498443 12.2985846,5.9119574 12.306046,6.21554388 L12.348099,7.70561011 C12.3565579,7.84715203 12.305391,7.98577402 12.2070002,8.08787651 C12.1086094,8.189979 11.9719762,8.24624163 11.8302182,8.24302733 L10.0295559,8.19037832 C9.7264711,8.17357667 9.4870381,7.92694052 9.47922481,7.6234909 L9.43717183,6.13342468 C9.42850262,5.99159506 9.47971568,5.85263119 9.57834956,5.75034653 C9.67698344,5.64806188 9.81399507,5.59183422 9.956046,5.59534521 Z" transform="rotate(30 10.893 6.92)"/>
      <path d="M15.9328554,0.124731797 L16.3018863,0.114131268 C16.6335588,0.106374868 16.9533709,0.237632287 17.1839656,0.476154683 C17.4145604,0.71467708 17.5349368,1.03874156 17.5159781,1.36996267 L17.1204459,15.6704073 L14.2533341,15.7525614 L14.6488663,1.45211677 C14.6653533,0.742575899 15.2242541,0.164785506 15.9328554,0.124731797 Z" transform="rotate(-28.999 15.886 7.933)"/>
      <polygon points="18.761 14.885 21.628 14.804 21.556 17.403 18.688 17.485" transform="rotate(-28.999 20.158 16.144)"/>
      <polygon points="5.526 7.339 8.395 7.422 8.752 20.027 5.883 19.943" transform="rotate(30 7.14 13.683)"/>
      <path d="M23.0750671,23.9443026 C22.9351289,23.2755671 22.6295412,22.6526646 22.1863254,22.1327131 C21.6409611,21.519137 20.5585108,21.1168191 20.135332,20.3926469 C19.2763916,18.9204615 19.5886433,18.0552297 19.5886433,18.0552297 L21.7025505,16.6237728 C22.6272413,17.10034 23.2733523,17.9847243 23.4462591,19.0105277 C23.6288782,19.7621833 23.6910201,20.5380633 23.6303651,21.3092032 C23.5493709,22.2063258 23.3629875,23.0907858 23.0750671,23.9443026 L23.0750671,23.9443026 Z" transform="rotate(3 21.593 20.284)"/>
    </g>
  </g>
</svg>
