<svg xmlns="http://www.w3.org/2000/svg" width="50" height="50" viewBox="0 0 50 50">
  <g fill="none">
    <circle cx="25" cy="25" r="25" fill="#FFF" opacity=".2"/>
    <circle cx="25" cy="25" r="22" fill="#01335A"/>
    <path fill="#FFF" d="M2.04470199 26.2417219C2.66688742 26.3523179 3.40165563 26.2162252 4.18741722 25.7930464L17.9665563 18.3738411 13.957947 14.3837748 2.04470199 26.2417219zM.689735099 1.17715232C.345695364 1.66688742.147682119 2.34072848.147682119 3.17086093L.147682119 23.3798013C.147682119 24.1884106.335099338 24.8486755.66192053 25.334106L12.8112583 13.242053.689735099 1.17715232zM17.9407285 8.13642384L4.1897351.753311258C3.42582781.343377483 2.70993377.202649007 2.09966887.296688742L13.957947 12.1 17.9407285 8.13642384zM19.4559603 17.5721854L23.4347682 15.4294702C25.6569536 14.2334437 25.6556291 12.2781457 23.4321192 11.0844371L19.431457 8.93642384 15.105298 13.242053 19.4559603 17.5721854z" transform="translate(14.57 11.59)"/>
  </g>
</svg>
